<svg aria-hidden="true" style="position: absolute; width: 0; height: 0; overflow: hidden;" version="1.1" xmlns="http://www.w3.org/2000/svg" xmlns:xlink="http://www.w3.org/1999/xlink">
<defs>
<symbol id="icon-facebook" viewBox="0 0 20 20">
<path d="M17 1h-14c-1.1 0-2 0.9-2 2v14c0 1.101 0.9 2 2 2h7v-7h-2v-2.475h2v-2.050c0-2.164 1.212-3.684 3.766-3.684l1.803 0.002v2.605h-1.197c-0.994 0-1.372 0.746-1.372 1.438v1.69h2.568l-0.568 2.474h-2v7h4c1.1 0 2-0.899 2-2v-14c0-1.1-0.9-2-2-2z"></path>
</symbol>
<symbol id="icon-github" viewBox="0 0 20 20">
<path d="M13.18 11.309c-0.718 0-1.3 0.807-1.3 1.799 0 0.994 0.582 1.801 1.3 1.801s1.3-0.807 1.3-1.801c-0.001-0.992-0.582-1.799-1.3-1.799zM17.706 6.626c0.149-0.365 0.155-2.439-0.635-4.426 0 0-1.811 0.199-4.551 2.080-0.575-0.16-1.548-0.238-2.519-0.238-0.973 0-1.945 0.078-2.52 0.238-2.741-1.881-4.552-2.080-4.552-2.080-0.789 1.987-0.781 4.061-0.634 4.426-0.928 1.008-1.495 2.219-1.495 3.871 0 7.186 5.963 7.301 7.467 7.301 0.342 0 1.018 0.002 1.734 0.002s1.392-0.002 1.732-0.002c1.506 0 7.467-0.115 7.467-7.301 0-1.652-0.566-2.863-1.494-3.871zM10.028 16.915h-0.056c-3.771 0-6.709-0.449-6.709-4.115 0-0.879 0.31-1.693 1.047-2.369 1.227-1.127 3.305-0.531 5.662-0.531 0.010 0 0.020 0 0.029 0s0.018 0 0.027 0c2.357 0 4.436-0.596 5.664 0.531 0.735 0.676 1.045 1.49 1.045 2.369 0 3.666-2.937 4.115-6.709 4.115zM6.821 11.309c-0.718 0-1.3 0.807-1.3 1.799 0 0.994 0.582 1.801 1.3 1.801s1.301-0.807 1.301-1.801c0-0.992-0.582-1.799-1.301-1.799z"></path>
</symbol>
<symbol id="icon-google" viewBox="0 0 20 20">
<path d="M1.989 5.589c0 1.494 0.499 2.572 1.482 3.205 0.806 0.52 1.74 0.598 2.226 0.598 0.118 0 0.213-0.006 0.279-0.010 0 0-0.154 1.004 0.59 1.996h-0.034c-1.289 0-5.493 0.269-5.493 3.727 0 3.516 3.861 3.695 4.636 3.695 0.061 0 0.097-0.002 0.097-0.002 0.008 0 0.063 0.002 0.158 0.002 0.497 0 1.782-0.062 2.975-0.643 1.548-0.75 2.333-2.059 2.333-3.885 0-1.764-1.196-2.814-2.069-3.582-0.533-0.469-0.994-0.873-0.994-1.266 0-0.4 0.337-0.701 0.762-1.082 0.689-0.615 1.339-1.492 1.339-3.15 0-1.457-0.189-2.436-1.354-3.057 0.121-0.062 0.551-0.107 0.763-0.137 0.631-0.086 1.554-0.184 1.554-0.699v-0.099h-4.599c-0.046 0.002-4.651 0.172-4.651 4.389zM9.413 14.602c0.088 1.406-1.115 2.443-2.922 2.574-1.835 0.135-3.345-0.691-3.433-2.096-0.043-0.676 0.254-1.336 0.835-1.863 0.589-0.533 1.398-0.863 2.278-0.928 0.104-0.006 0.207-0.012 0.31-0.012 1.699 0.001 2.849 0.999 2.932 2.325zM8.212 4.626c0.451 1.588-0.23 3.246-1.316 3.553-0.125 0.035-0.253 0.052-0.384 0.052-0.994 0-1.979-1.006-2.345-2.393-0.204-0.776-0.187-1.458 0.047-2.112 0.229-0.645 0.643-1.078 1.163-1.225 0.125-0.035 0.254-0.053 0.385-0.053 1.2 0 1.972 0.498 2.45 2.178zM16 8v-3h-2v3h-3v2h3v3h2v-3h3v-2h-3z"></path>
</symbol>
<symbol id="icon-instagram" viewBox="0 0 20 20">
<path d="M17 1h-14c-1.1 0-2 0.9-2 2v14c0 1.101 0.9 2 2 2h14c1.1 0 2-0.899 2-2v-14c0-1.1-0.9-2-2-2zM9.984 15.523c3.059 0 5.538-2.481 5.538-5.539 0-0.338-0.043-0.664-0.103-0.984h1.581v7.216c0 0.382-0.31 0.69-0.693 0.69h-12.614c-0.383 0-0.693-0.308-0.693-0.69v-7.216h1.549c-0.061 0.32-0.104 0.646-0.104 0.984 0 3.059 2.481 5.539 5.539 5.539zM6.523 9.984c0-1.912 1.55-3.461 3.462-3.461s3.462 1.549 3.462 3.461-1.551 3.462-3.462 3.462c-1.913 0-3.462-1.55-3.462-3.462zM16.307 6h-1.615c-0.382 0-0.692-0.312-0.692-0.692v-1.617c0-0.382 0.31-0.691 0.691-0.691h1.615c0.384 0 0.694 0.309 0.694 0.691v1.616c0 0.381-0.31 0.693-0.693 0.693z"></path>
</symbol>
<symbol id="icon-linkedin" viewBox="0 0 20 20">
<path d="M5 3c0 1.062-0.71 1.976-2.001 1.976-1.215 0-1.999-0.862-1.999-1.924 0-1.090 0.76-2.052 2-2.052s1.976 0.91 2 2zM1 19v-13h4v13h-4z"></path>
<path d="M7 10.444c0-1.545-0.051-2.836-0.102-3.951h3.594l0.178 1.723h0.076c0.506-0.811 1.746-2 3.822-2 2.532 0 4.432 1.695 4.432 5.342v7.442h-4v-6.861c0-1.594-0.607-2.81-2-2.81-1.062 0-1.594 0.86-1.873 1.569-0.102 0.254-0.127 0.608-0.127 0.963v7.139h-4v-8.556z"></path>
</symbol>
</defs>
</svg>
